<svg xmlns="http://www.w3.org/2000/svg" viewBox="0 0 256 110">
<defs><clipPath id="cla"><circle cx="62" cy="60" r="30"/><circle cx="104" cy="44" r="38"/><circle cx="156" cy="52" r="32"/><circle cx="196" cy="64" r="26"/><rect x="36" y="64" width="186" height="26" rx="6"/></clipPath></defs><g fill="#8FB2CC" stroke="none" opacity=".9"><circle cx="62" cy="60" r="34"/><circle cx="104" cy="44" r="42"/><circle cx="156" cy="52" r="36"/><circle cx="196" cy="64" r="30"/><rect x="32" y="64" width="194" height="30" rx="8"/></g><g fill="#FBFCFE" stroke="none"><circle cx="62" cy="60" r="30"/><circle cx="104" cy="44" r="38"/><circle cx="156" cy="52" r="32"/><circle cx="196" cy="64" r="26"/><rect x="36" y="64" width="186" height="26" rx="6"/></g><g clip-path="url(#cla)"><rect x="0" y="68" width="256" height="40" fill="#C6D8E8"/><rect x="0" y="79" width="256" height="30" fill="#AFC7DC"/><circle cx="67.4" cy="69" r="21.6" fill="#FBFCFE"/><circle cx="110.84" cy="55.4" r="27.36" fill="#FBFCFE"/><circle cx="161.76" cy="61.6" r="23.04" fill="#FBFCFE"/><circle cx="200.68" cy="71.8" r="18.72" fill="#FBFCFE"/></g>
</svg>
