<svg xmlns="http://www.w3.org/2000/svg" viewBox="0 0 128 128">
<g opacity="0.68"><g fill="#1B1420" stroke="none"><circle cx="64" cy="59.15" r="25.95"/><circle cx="65.71" cy="86.29" r="17.71"/><circle cx="43.2" cy="68.75" r="21.27"/><circle cx="39.22" cy="50.15" r="16.73"/><circle cx="58.56" cy="33.25" r="17.3"/><circle cx="81.04" cy="37.72" r="21.7"/><circle cx="90.7" cy="54.97" r="16.14"/><circle cx="80.11" cy="76.76" r="19.85"/></g><g fill="#6e6877" stroke="none"><circle cx="64" cy="59.15" r="24.25"/><circle cx="65.71" cy="86.29" r="16.01"/><circle cx="43.2" cy="68.75" r="19.57"/><circle cx="39.22" cy="50.15" r="15.03"/><circle cx="58.56" cy="33.25" r="15.6"/><circle cx="81.04" cy="37.72" r="20"/><circle cx="90.7" cy="54.97" r="14.44"/><circle cx="80.11" cy="76.76" r="18.15"/></g><g fill="#B8B2C0" stroke="none" opacity=".5"><circle cx="59.64" cy="53.82" r="15.03"/><circle cx="62.83" cy="82.76" r="9.93"/><circle cx="39.68" cy="64.44" r="12.14"/><circle cx="36.51" cy="46.85" r="9.32"/><circle cx="55.75" cy="29.82" r="9.67"/><circle cx="77.44" cy="33.32" r="12.4"/><circle cx="88.1" cy="51.79" r="8.95"/><circle cx="76.85" cy="72.77" r="11.25"/></g></g><g opacity="0.57"><g fill="#1B1420" stroke="none"><circle cx="64" cy="64" r="17.11"/><circle cx="54.27" cy="57.89" r="11.6"/><circle cx="58.85" cy="53.79" r="12.17"/><circle cx="69.27" cy="54.82" r="15.32"/><circle cx="76.91" cy="60.83" r="12.26"/><circle cx="77.67" cy="69.56" r="13.04"/><circle cx="65.56" cy="78.23" r="14.55"/><circle cx="61.26" cy="76.86" r="14.11"/><circle cx="51.99" cy="65.08" r="13.4"/></g><g fill="#de5a1d" stroke="none"><circle cx="64" cy="64" r="15.07"/><circle cx="54.27" cy="57.89" r="9.56"/><circle cx="58.85" cy="53.79" r="10.13"/><circle cx="69.27" cy="54.82" r="13.28"/><circle cx="76.91" cy="60.83" r="10.22"/><circle cx="77.67" cy="69.56" r="11"/><circle cx="65.56" cy="78.23" r="12.51"/><circle cx="61.26" cy="76.86" r="12.07"/><circle cx="51.99" cy="65.08" r="11.36"/></g><g fill="#FFC93C" stroke="none"><circle cx="64" cy="64" r="10.85"/><circle cx="58.15" cy="58.35" r="6.45"/><circle cx="65.38" cy="54.15" r="6.25"/><circle cx="70.94" cy="63.41" r="8.29"/><circle cx="71.2" cy="70.6" r="6.29"/><circle cx="60.46" cy="71.53" r="7.47"/><circle cx="54.36" cy="64.04" r="6.73"/></g><g fill="#FFF6D0" stroke="none"><circle cx="64" cy="64" r="2.08"/><circle cx="65.07" cy="63.9" r="1.31"/><circle cx="64.65" cy="65.6" r="1.5"/><circle cx="62.9" cy="65.03" r="1.67"/><circle cx="62.85" cy="63.03" r="1.28"/><circle cx="64.41" cy="62.85" r="1.7"/></g></g>
</svg>
