<svg xmlns="http://www.w3.org/2000/svg" viewBox="0 0 256 256">
<g opacity="1"><g fill="#1B1420" stroke="none"><circle cx="128" cy="128" r="36.2"/><circle cx="144.63" cy="145.44" r="31.37"/><circle cx="131.37" cy="155.53" r="29.34"/><circle cx="106.51" cy="139.49" r="31.22"/><circle cx="106.8" cy="129.38" r="30.79"/><circle cx="113.83" cy="104.4" r="23.74"/><circle cx="136.95" cy="102.39" r="25.51"/><circle cx="148.43" cy="106" r="24.35"/><circle cx="155.27" cy="131.14" r="28.52"/></g><g fill="#f2731f" stroke="none"><circle cx="128" cy="128" r="31.2"/><circle cx="144.63" cy="145.44" r="26.37"/><circle cx="131.37" cy="155.53" r="24.34"/><circle cx="106.51" cy="139.49" r="26.22"/><circle cx="106.8" cy="129.38" r="25.79"/><circle cx="113.83" cy="104.4" r="18.74"/><circle cx="136.95" cy="102.39" r="20.51"/><circle cx="148.43" cy="106" r="19.35"/><circle cx="155.27" cy="131.14" r="23.52"/></g><g fill="#FFC93C" stroke="none"><circle cx="128" cy="128" r="22.46"/><circle cx="140.41" cy="143.98" r="15.89"/><circle cx="122.18" cy="142.46" r="17.37"/><circle cx="109.42" cy="125.34" r="14.42"/><circle cx="120.56" cy="115.27" r="15.57"/><circle cx="135.63" cy="114.6" r="16.32"/><circle cx="145.72" cy="123.83" r="14.4"/></g><g fill="#FFF6D0" stroke="none"><circle cx="128" cy="128" r="28.7"/><circle cx="147.03" cy="126.32" r="21.75"/><circle cx="132.94" cy="144.8" r="18.51"/><circle cx="114.82" cy="138.37" r="19.15"/><circle cx="112.75" cy="110.3" r="21.28"/><circle cx="132" cy="114.01" r="24.62"/></g></g><g opacity="1"><g stroke="#1B1420" stroke-width="6.5" stroke-linecap="round" fill="none"><path d="M174.65,139.41 L187.31,142.51 M149.3,177.48 L155.52,191.94 M118.19,179.88 L114.63,198.74 M107.06,176.32 L102.33,187.24 M86.44,161.7 L65.08,179.02 M73.07,116.98 L52.44,112.84 M86.17,97.38 L67.79,83.93 M102.31,79.87 L87.66,52.41 M131.58,72.91 L133.37,45.42 M162.51,95.73 L184.12,75.53 M181.93,132.47 L198.46,133.84 "/></g><g stroke="#FFC93C" stroke-width="4" stroke-linecap="round" fill="none"><path d="M174.65,139.41 L187.31,142.51 M149.3,177.48 L155.52,191.94 M118.19,179.88 L114.63,198.74 M107.06,176.32 L102.33,187.24 M86.44,161.7 L65.08,179.02 M73.07,116.98 L52.44,112.84 M86.17,97.38 L67.79,83.93 M102.31,79.87 L87.66,52.41 M131.58,72.91 L133.37,45.42 M162.51,95.73 L184.12,75.53 M181.93,132.47 L198.46,133.84 "/></g></g>
</svg>
