<svg xmlns="http://www.w3.org/2000/svg" viewBox="0 0 96 128">
<ellipse cx="48" cy="124" rx="22" ry="6.8" fill="#F2731F" opacity=".35" stroke="none"/><g transform="translate(35,122)"><path d="M0,0 C-10.4,-9.41 -7.49,-18.49 -2.5,-22.19 C-5.41,-28.92 -1.46,-31.94 3.12,-33.62 C3.12,-24.88 4.58,-20.85 5.2,-15.47 C9.98,-10.76 8.94,-3.36 0,0 Z" fill="#F2731F" stroke="#1B1420" stroke-width="4.8" stroke-linejoin="round" stroke-linecap="round"/><path d="M0,0 C-6.03,-6.4 -4.34,-12.57 -1.45,-15.09 C-3.14,-19.66 -0.84,-21.72 1.56,-22.86 C1.81,-16.92 2.65,-14.18 3.02,-10.52 C5.79,-7.32 5.19,-2.29 0,0 Z" fill="#FFC93C" stroke="none"/><path d="M0,0 C-3.12,-3.58 -2.25,-7.03 -0.75,-8.43 C-1.62,-10.99 -0.44,-12.14 0,-12.78 C0.94,-9.45 1.37,-7.92 1.56,-5.88 C3,-4.09 2.68,-1.28 0,0 Z" fill="#FFF6D0" stroke="none"/></g><g transform="translate(61,122)"><path d="M0,0 C-10,-9.52 -7.2,-18.7 -2.4,-22.44 C-5.2,-29.24 -1.4,-32.3 -3.12,-34 C3,-25.16 4.4,-21.08 5,-15.64 C9.6,-10.88 8.6,-3.4 0,0 Z" fill="#F2731F" stroke="#1B1420" stroke-width="4.8" stroke-linejoin="round" stroke-linecap="round"/><path d="M0,0 C-5.8,-6.47 -4.18,-12.72 -1.39,-15.26 C-3.02,-19.88 -0.81,-21.96 -1.56,-23.12 C1.74,-17.11 2.55,-14.33 2.9,-10.64 C5.57,-7.4 4.99,-2.31 0,0 Z" fill="#FFC93C" stroke="none"/><path d="M0,0 C-3,-3.62 -2.16,-7.11 -0.72,-8.53 C-1.56,-11.11 -0.42,-12.27 0,-12.92 C0.9,-9.56 1.32,-8.01 1.5,-5.94 C2.88,-4.13 2.58,-1.29 0,0 Z" fill="#FFF6D0" stroke="none"/></g><g transform="translate(48,124)"><path d="M0,0 C-19,-21.78 -13.68,-42.78 -4.56,-51.34 C-9.88,-66.89 -2.66,-73.89 -3.81,-77.78 C5.7,-57.56 8.36,-48.22 9.5,-35.78 C18.24,-24.89 16.34,-7.78 0,0 Z" fill="#F2731F" stroke="#1B1420" stroke-width="5.6" stroke-linejoin="round" stroke-linecap="round"/><path d="M0,0 C-11.02,-14.81 -7.93,-29.09 -2.64,-34.91 C-5.73,-45.49 -1.54,-50.25 -1.91,-52.89 C3.31,-39.14 4.85,-32.79 5.51,-24.33 C10.58,-16.93 9.48,-5.29 0,0 Z" fill="#FFC93C" stroke="none"/><path d="M0,0 C-5.7,-8.28 -4.1,-16.26 -1.37,-19.51 C-2.96,-25.42 -0.8,-28.08 0,-29.56 C1.71,-21.87 2.51,-18.33 2.85,-13.6 C5.47,-9.46 4.9,-2.96 0,0 Z" fill="#FFF6D0" stroke="none"/></g><g transform="translate(41.9,65.86)"><path d="M0,0 C-8.4,-5.04 -6.05,-9.9 -2.02,-11.88 C-4.37,-15.48 -1.18,-17.1 0,-18 C2.52,-13.32 3.7,-11.16 4.2,-8.28 C8.06,-5.76 7.22,-1.8 0,0 Z" fill="#FFC93C" stroke="#1B1420" stroke-width="4.4" stroke-linejoin="round" stroke-linecap="round"/></g><circle cx="37.12" cy="55.86" r="3.8" fill="#FFF6D0" stroke="none" opacity=".9"/>
</svg>
