<svg xmlns="http://www.w3.org/2000/svg" viewBox="0 0 96 96">
<g opacity="0.48"><g fill="#1B1420" stroke="none"><circle cx="48" cy="41" r="20.72"/><circle cx="48.12" cy="54.26" r="16.64"/><circle cx="36.77" cy="48.26" r="15.78"/><circle cx="33.7" cy="38.28" r="17.52"/><circle cx="44.91" cy="26.39" r="16.75"/><circle cx="57.69" cy="31.73" r="16.37"/><circle cx="60.47" cy="44.4" r="15.12"/></g><g fill="#7A7484" stroke="none"><circle cx="48" cy="41" r="17.52"/><circle cx="48.12" cy="54.26" r="13.44"/><circle cx="36.77" cy="48.26" r="12.58"/><circle cx="33.7" cy="38.28" r="14.32"/><circle cx="44.91" cy="26.39" r="13.55"/><circle cx="57.69" cy="31.73" r="13.17"/><circle cx="60.47" cy="44.4" r="11.92"/></g><g fill="#B8B2C0" stroke="none" opacity=".6"><circle cx="44.5" cy="36.8" r="10.51"/><circle cx="45.44" cy="51.03" r="8.07"/><circle cx="34.26" cy="45.25" r="7.55"/><circle cx="30.84" cy="34.84" r="8.59"/><circle cx="42.2" cy="23.14" r="8.13"/><circle cx="55.05" cy="28.57" r="7.9"/><circle cx="58.09" cy="41.54" r="7.15"/></g></g>
</svg>
